<?xml version="1.0" standalone="no"?>
<!DOCTYPE svg PUBLIC "-//W3C//DTD SVG 20010904//EN"
 "http://www.w3.org/TR/2001/REC-SVG-20010904/DTD/svg10.dtd">
<svg version="1.0" xmlns="http://www.w3.org/2000/svg"
 width="982.000000pt" height="842.000000pt" viewBox="0 0 982.000000 842.000000"
 preserveAspectRatio="xMidYMid meet">
<metadata>
Created by potrace 1.16, written by Peter Selinger 2001-2019
</metadata>
<g transform="translate(0.000000,842.000000) scale(0.100000,-0.100000)"
fill="#000000" stroke="none">
<path d="M192 8340 c-59 -25 -122 -101 -122 -148 0 -51 57 -119 122 -146 32
-14 111 -16 567 -16 348 0 548 -4 583 -11 72 -15 170 -62 213 -103 20 -19 42
-37 50 -40 8 -3 15 -10 15 -17 0 -6 11 -19 24 -30 55 -44 20 72 803 -2594 260
-886 446 -1535 508 -1775 59 -227 105 -360 173 -495 177 -354 414 -565 745
-663 l92 -27 1841 -3 1841 -2 53 27 c41 22 59 40 83 81 l29 53 -24 47 c-14 27
-42 59 -67 77 l-43 30 -1871 5 c-1721 5 -1876 7 -1927 23 -200 61 -350 199
-465 427 -60 118 -85 195 -85 255 l0 55 2148 0 c2307 0 2248 -1 2399 50 34 12
87 37 118 56 32 19 59 34 61 34 6 0 83 86 117 131 89 118 226 385 427 829 157
346 1020 2280 1055 2365 42 99 81 244 96 350 17 132 -20 263 -112 387 -19 26
-39 47 -45 47 -6 1 -19 10 -28 20 -9 10 -45 33 -80 50 -131 64 110 60 -3271
63 l-3081 3 -49 -26 c-67 -34 -110 -102 -101 -154 9 -48 80 -120 132 -134 27
-8 965 -11 3124 -11 2092 0 3097 -3 3122 -10 60 -17 68 -37 68 -175 0 -174
-24 -261 -135 -500 -20 -44 -214 -478 -430 -965 -641 -1445 -748 -1677 -853
-1855 -82 -137 -132 -188 -209 -212 -55 -17 -176 -18 -2323 -18 l-2265 0 -78
285 c-116 428 -462 1671 -808 2910 -196 701 -320 1126 -338 1162 -28 55 -109
166 -123 167 -3 1 -30 17 -59 36 -51 33 -146 69 -254 96 -63 16 -1327 24
-1363 9z"/>
<path d="M3905 1948 c-397 -49 -735 -346 -839 -738 -24 -87 -32 -244 -17 -322
40 -211 145 -405 299 -549 117 -111 265 -194 427 -241 66 -19 103 -23 210 -22
111 1 143 5 218 27 362 111 625 394 702 760 55 255 -47 564 -257 783 -161 167
-371 277 -575 299 -32 3 -67 7 -78 9 -11 2 -51 -1 -90 -6z m295 -327 c195 -62
353 -231 401 -431 18 -71 18 -289 0 -360 -51 -212 -229 -390 -441 -441 -71
-18 -289 -18 -360 0 -212 51 -390 229 -441 441 -8 31 -14 110 -14 180 0 70 6
149 14 180 55 227 246 409 474 450 87 15 292 5 367 -19z"/>
<path d="M7565 1953 c-241 -26 -448 -125 -615 -292 -238 -238 -336 -566 -257
-855 34 -122 90 -239 162 -334 30 -40 55 -75 55 -77 0 -7 72 -75 80 -75 4 0
14 -7 21 -16 23 -28 159 -116 233 -150 151 -69 330 -97 472 -74 158 25 330
100 445 192 33 27 61 48 64 48 8 0 62 61 111 125 91 119 146 231 186 380 57
211 5 471 -135 679 -28 43 -56 85 -62 93 -17 26 -115 116 -174 161 -162 122
-432 212 -586 195z m271 -337 c189 -61 334 -215 384 -411 28 -108 28 -282 0
-390 -52 -202 -205 -358 -415 -421 -85 -26 -315 -26 -399 0 -77 23 -172 71
-203 102 -13 13 -28 24 -33 24 -13 0 -104 115 -134 170 -67 122 -87 354 -46
515 47 184 174 329 352 399 94 37 156 46 293 41 94 -2 137 -9 201 -29z"/>
</g>
</svg>
