<?xml version="1.0" standalone="no"?>
<!DOCTYPE svg PUBLIC "-//W3C//DTD SVG 20010904//EN"
 "http://www.w3.org/TR/2001/REC-SVG-20010904/DTD/svg10.dtd">
<svg version="1.0" xmlns="http://www.w3.org/2000/svg"
 width="984.000000pt" height="984.000000pt" viewBox="0 0 984.000000 984.000000"
 preserveAspectRatio="xMidYMid meet">
<metadata>
Created by potrace 1.16, written by Peter Selinger 2001-2019
</metadata>
<g transform="translate(0.000000,984.000000) scale(0.100000,-0.100000)"
fill="#000000" stroke="none">
<path d="M4530 9809 c10 -7 -2 -8 -41 -3 -39 4 -59 2 -64 -6 -5 -7 -21 -9 -46
-5 -27 5 -39 3 -39 -5 0 -8 -12 -10 -40 -5 -27 5 -40 3 -40 -5 0 -7 -12 -9
-34 -5 -20 4 -36 2 -40 -4 -4 -6 -18 -8 -32 -5 -15 4 -24 2 -24 -6 0 -8 -10
-9 -29 -5 -17 4 -32 2 -36 -5 -4 -6 -15 -8 -25 -5 -10 3 -21 1 -25 -5 -3 -5
-17 -7 -31 -4 -16 4 -24 2 -24 -6 0 -7 -8 -10 -20 -7 -11 3 -23 1 -26 -4 -3
-6 -14 -7 -24 -4 -10 3 -21 1 -25 -5 -4 -6 -15 -8 -26 -5 -11 4 -19 2 -19 -5
0 -7 -8 -9 -20 -5 -12 4 -20 2 -20 -5 0 -7 -8 -9 -19 -5 -11 3 -22 1 -25 -4
-4 -6 -13 -8 -20 -5 -8 3 -17 1 -20 -5 -4 -6 -13 -8 -20 -5 -8 3 -17 1 -20 -5
-4 -6 -13 -8 -21 -4 -8 3 -15 0 -15 -7 0 -7 -7 -10 -15 -7 -8 4 -17 2 -20 -3
-3 -5 -12 -7 -20 -3 -8 3 -15 0 -15 -7 0 -7 -6 -10 -14 -7 -8 3 -17 3 -21 -1
-4 -4 -10 -7 -13 -8 -4 0 -14 -4 -22 -7 -42 -18 -104 -37 -108 -32 -3 3 -11 0
-19 -6 -7 -6 -13 -8 -13 -3 0 5 -4 3 -8 -3 -4 -7 -19 -15 -32 -17 -14 -2 -26
-5 -27 -7 -2 -1 -7 -3 -13 -4 -5 -1 -12 -4 -15 -5 -3 -1 -8 -3 -12 -4 -5 -1
-18 -7 -30 -14 -13 -7 -23 -10 -23 -6 0 3 -7 1 -15 -6 -8 -7 -15 -10 -15 -6 0
4 -11 -1 -25 -10 -14 -9 -25 -13 -25 -10 0 4 -11 -1 -25 -10 -14 -9 -25 -13
-25 -9 0 3 -16 -3 -35 -15 -19 -12 -35 -19 -35 -15 0 4 -17 -4 -37 -17 -21
-12 -40 -22 -43 -21 -3 1 -82 -37 -177 -85 -230 -116 -236 -120 -248 -129 -5
-4 -21 -14 -35 -20 -30 -15 -54 -30 -97 -60 -17 -13 -34 -23 -38 -23 -5 0
-123 -79 -264 -177 -85 -59 -310 -243 -423 -347 -158 -144 -350 -347 -480
-506 -60 -74 -121 -148 -134 -164 -13 -15 -24 -30 -24 -32 0 -8 -83 -119 -92
-122 -4 -2 -8 -10 -8 -18 0 -8 -4 -14 -10 -14 -5 0 -10 -7 -10 -15 0 -8 -4
-15 -10 -15 -5 0 -10 -7 -10 -15 0 -8 -4 -15 -10 -15 -5 0 -10 -7 -10 -15 0
-8 -3 -15 -7 -15 -5 0 -17 -18 -27 -40 -11 -22 -23 -40 -28 -40 -4 0 -8 -4 -8
-9 0 -5 -17 -37 -37 -71 -74 -120 -262 -486 -303 -590 -12 -30 -30 -73 -40
-95 -37 -83 -119 -325 -159 -465 -79 -278 -134 -567 -167 -865 -18 -164 -29
-953 -13 -905 6 17 7 7 4 -32 -4 -40 -2 -58 6 -58 8 0 10 -14 6 -45 -5 -30 -3
-45 4 -45 8 0 9 -14 5 -40 -4 -27 -3 -40 5 -40 8 0 10 -12 6 -35 -3 -21 -2
-35 4 -35 7 0 8 -12 4 -30 -4 -20 -3 -30 5 -30 7 0 10 -12 9 -28 -2 -15 0 -33
4 -40 5 -6 5 -17 2 -22 -4 -6 -1 -17 5 -25 7 -8 10 -24 7 -35 -3 -11 -1 -20 5
-20 6 0 8 -11 6 -25 -3 -14 -1 -25 4 -25 5 0 7 -9 3 -19 -3 -11 -1 -22 5 -26
6 -4 8 -15 5 -26 -4 -11 -2 -19 5 -19 7 0 9 -8 5 -20 -4 -12 -2 -20 5 -20 7 0
9 -7 6 -17 -4 -9 -2 -19 4 -23 6 -4 11 -23 12 -43 1 -20 5 -37 10 -37 5 0 6
-9 3 -20 -4 -12 -2 -20 5 -20 7 0 10 -7 7 -15 -4 -8 -2 -17 4 -20 5 -4 6 -11
3 -17 -4 -6 -1 -14 5 -18 7 -4 14 -20 16 -36 2 -16 4 -31 5 -34 2 -3 2 -9 1
-14 -1 -5 2 -12 7 -15 12 -8 56 -141 54 -163 0 -10 3 -18 9 -18 5 0 8 -3 8 -7
-1 -5 0 -11 1 -15 1 -5 3 -11 4 -15 1 -5 7 -18 14 -30 7 -13 10 -23 6 -23 -3
0 -1 -7 6 -15 7 -8 10 -15 6 -15 -4 0 1 -11 10 -25 9 -14 12 -25 8 -25 -5 0
-3 -4 4 -9 7 -4 14 -18 15 -29 1 -12 5 -22 9 -22 4 0 7 -3 6 -7 -1 -5 3 -18
10 -29 6 -12 8 -24 5 -28 -3 -3 -1 -6 5 -6 7 0 11 -3 10 -8 -1 -4 3 -17 10
-28 6 -12 8 -24 5 -28 -3 -3 -1 -6 6 -6 7 0 9 -4 6 -10 -3 -5 -1 -10 4 -10 6
0 10 -3 9 -7 -2 -9 126 -271 141 -289 6 -7 7 -15 4 -18 -4 -3 -2 -6 4 -6 6 0
18 -17 28 -37 24 -56 47 -96 62 -111 7 -7 13 -20 13 -28 0 -8 3 -14 8 -14 7 0
25 -30 38 -62 3 -10 10 -18 15 -18 5 0 9 -7 9 -15 0 -8 5 -15 10 -15 6 0 10
-5 10 -11 0 -12 60 -103 72 -107 4 -2 8 -10 8 -18 0 -8 4 -14 8 -14 5 0 17
-16 28 -35 10 -19 22 -35 26 -35 3 0 9 -8 12 -17 4 -10 19 -32 34 -50 15 -17
36 -43 46 -58 11 -14 27 -34 35 -45 9 -10 28 -33 43 -51 14 -19 36 -45 48 -59
12 -14 45 -52 73 -85 69 -80 333 -344 428 -428 116 -103 249 -208 367 -293 59
-42 109 -81 110 -86 2 -4 10 -8 18 -8 8 0 14 -4 14 -10 0 -5 5 -10 10 -10 9 0
117 -67 130 -80 3 -3 26 -17 53 -30 26 -14 47 -28 47 -32 0 -5 6 -8 14 -8 8 0
21 -6 28 -13 7 -7 30 -22 51 -33 22 -10 112 -56 200 -101 168 -84 287 -140
347 -162 19 -8 49 -19 65 -26 17 -7 71 -27 120 -45 456 -161 895 -251 1371
-280 189 -12 743 -10 704 2 -14 4 0 5 33 2 41 -4 57 -2 57 7 0 8 13 10 45 6
30 -5 45 -3 45 4 0 8 14 9 40 5 27 -4 40 -3 40 5 0 8 12 10 35 6 22 -4 35 -2
35 5 0 6 12 8 30 5 16 -4 32 -2 36 4 3 6 17 9 30 6 13 -2 24 0 24 5 0 5 10 8
23 7 12 -1 30 1 40 6 9 4 24 5 32 1 8 -3 15 0 15 5 0 7 11 9 25 7 14 -3 25 -1
25 4 0 6 7 7 16 4 9 -4 23 -1 30 5 8 6 21 9 29 5 8 -3 15 -1 15 5 0 6 9 8 19
4 11 -3 22 -1 26 5 3 6 11 8 16 4 5 -3 16 -1 24 6 7 6 27 12 44 12 17 1 31 5
31 11 0 5 8 6 17 3 9 -4 19 -2 23 4 3 5 19 11 36 12 16 1 32 6 35 10 3 4 18 9
35 10 16 1 31 5 34 9 5 6 186 68 218 74 9 2 18 4 20 5 1 2 5 3 10 4 4 1 17 7
30 14 12 7 22 10 22 6 0 -3 7 -1 15 6 8 7 15 10 15 6 0 -4 11 1 25 10 14 9 25
13 25 10 0 -4 12 2 27 11 15 10 28 17 30 15 2 -1 17 5 33 13 17 9 30 13 30 10
0 -3 21 7 48 22 26 15 47 26 47 24 0 -5 283 137 360 180 28 16 62 34 78 40 15
6 27 15 27 19 0 5 10 12 23 16 12 4 24 9 27 13 8 10 44 31 63 37 9 4 17 10 17
15 0 5 5 9 10 9 12 0 155 95 184 122 11 10 23 18 27 18 4 0 14 6 21 12 7 7 29
24 49 38 50 34 97 72 208 164 148 123 164 138 347 320 179 180 319 342 467
541 48 66 95 128 103 138 8 9 14 22 14 27 0 6 5 10 10 10 6 0 10 5 10 11 0 6
20 40 45 76 25 35 45 66 45 70 0 3 14 25 30 50 17 24 30 46 30 48 0 2 14 28
32 57 53 89 178 336 233 463 222 509 359 1081 395 1658 13 195 10 783 -3 764
-5 -7 -6 8 -2 36 4 31 2 53 -5 63 -8 8 -10 27 -6 49 5 23 3 35 -4 35 -8 0 -10
13 -5 40 5 28 3 40 -5 40 -7 0 -10 12 -9 28 2 15 0 32 -4 39 -4 7 -5 24 -1 38
4 16 2 25 -6 25 -8 0 -10 8 -7 22 4 12 1 28 -5 35 -6 7 -8 22 -5 33 3 11 1 23
-4 26 -6 3 -7 14 -4 24 3 10 1 21 -5 25 -6 4 -9 14 -5 23 3 8 1 18 -5 22 -6 4
-12 25 -13 48 -1 23 -5 42 -10 42 -5 0 -6 9 -2 19 3 11 1 22 -4 25 -6 4 -8 13
-5 20 3 8 1 17 -5 20 -6 4 -8 13 -5 20 3 8 1 17 -5 20 -6 4 -8 13 -4 21 3 8 0
15 -7 15 -7 0 -10 7 -7 15 4 8 2 17 -3 20 -5 3 -7 12 -3 20 3 8 0 15 -7 15 -7
0 -10 7 -7 15 4 8 2 17 -4 20 -5 4 -6 11 -3 17 4 6 2 13 -4 17 -6 3 -13 20
-16 36 -2 17 -5 31 -6 33 -2 1 -4 7 -5 12 -1 6 -4 12 -5 15 -1 3 -4 10 -5 15
-1 6 -4 12 -5 15 -1 3 -4 10 -5 15 -1 6 -4 12 -5 15 -1 3 -3 8 -5 13 -1 4 -7
21 -14 37 -7 17 -14 37 -16 45 -2 8 -4 16 -5 18 -2 1 -3 5 -4 10 -1 4 -7 17
-14 30 -7 12 -10 22 -6 22 3 0 1 7 -6 15 -7 8 -9 15 -6 15 7 0 2 12 -38 88 -9
17 -14 32 -11 32 4 0 -2 15 -13 33 -12 17 -21 37 -21 42 0 18 -106 231 -213
425 -10 19 -27 49 -38 65 -10 17 -26 44 -35 62 -9 18 -23 37 -31 44 -8 6 -14
16 -14 21 0 8 -60 99 -161 243 -227 323 -596 706 -944 980 -55 44 -101 83
-103 87 -2 4 -8 8 -13 8 -10 0 -152 102 -157 113 -2 4 -10 7 -18 7 -8 0 -14 5
-14 10 0 6 -7 10 -15 10 -8 0 -15 5 -15 10 0 6 -4 10 -10 10 -5 0 -42 21 -82
47 -88 57 -104 67 -143 88 -16 8 -52 29 -80 45 -105 63 -417 211 -575 273
-417 165 -853 271 -1320 323 -182 20 -926 31 -900 13z m658 -599 c40 1 62 -3
62 -10 0 -8 18 -9 60 -4 42 5 60 3 60 -5 0 -8 13 -9 40 -5 27 4 40 3 40 -5 0
-8 13 -9 40 -5 28 5 40 3 40 -5 0 -8 11 -10 35 -5 23 4 35 2 35 -5 0 -6 11 -8
30 -4 19 3 30 1 30 -5 0 -7 11 -9 30 -5 17 3 30 1 30 -4 0 -6 11 -8 25 -5 15
2 25 0 25 -7 0 -7 9 -9 25 -5 14 3 25 2 25 -4 0 -6 8 -8 19 -5 10 3 22 0 25
-5 3 -6 15 -8 26 -5 11 3 20 1 20 -5 0 -6 9 -8 20 -5 11 3 20 1 20 -5 0 -6 9
-8 20 -5 11 3 20 1 20 -5 0 -6 9 -8 20 -5 12 3 20 0 20 -6 0 -7 4 -10 9 -6 13
7 101 -17 101 -28 0 -5 7 -7 15 -3 8 3 15 1 15 -5 0 -6 4 -8 9 -4 10 5 143
-34 208 -62 21 -9 47 -18 58 -20 10 -2 30 -10 42 -18 13 -9 23 -13 23 -9 0 3
11 -1 25 -10 14 -9 25 -14 25 -11 0 3 13 -1 30 -10 16 -8 32 -15 35 -15 3 0
20 -7 38 -17 17 -9 35 -16 40 -15 4 1 7 -3 7 -10 0 -6 3 -9 6 -5 6 5 285 -131
294 -144 3 -4 24 -15 48 -24 23 -10 42 -21 42 -26 0 -5 6 -9 14 -9 8 0 21 -6
28 -14 8 -7 24 -17 36 -20 12 -4 22 -12 22 -17 0 -5 5 -9 12 -9 6 0 26 -11 44
-25 18 -14 37 -25 43 -25 6 0 11 -4 11 -10 0 -5 7 -10 15 -10 8 0 15 -4 15 -8
0 -4 23 -21 50 -37 28 -16 50 -32 50 -36 0 -4 8 -10 18 -13 9 -3 31 -17 47
-31 42 -34 45 -37 90 -70 22 -17 45 -34 51 -40 6 -5 30 -26 54 -45 219 -178
488 -458 677 -707 88 -115 246 -348 264 -388 5 -11 18 -33 28 -50 38 -62 66
-113 127 -235 243 -483 388 -986 439 -1524 18 -193 21 -666 4 -666 -8 0 -9
-20 -4 -65 5 -47 3 -65 -5 -65 -8 0 -10 -14 -5 -50 5 -36 3 -50 -5 -50 -8 0
-10 -12 -5 -40 4 -27 3 -40 -4 -40 -7 0 -9 -14 -5 -40 4 -26 3 -40 -4 -40 -7
0 -9 -11 -5 -30 3 -19 1 -30 -5 -30 -7 0 -9 -11 -5 -30 3 -17 1 -30 -4 -30 -6
0 -8 -11 -5 -25 2 -15 0 -25 -7 -25 -7 0 -9 -9 -5 -25 4 -16 2 -25 -5 -25 -7
0 -9 -9 -5 -25 3 -14 2 -25 -4 -25 -6 0 -8 -8 -5 -19 3 -10 0 -22 -5 -25 -6
-3 -8 -15 -5 -26 3 -11 1 -20 -5 -20 -6 0 -8 -9 -5 -20 3 -11 1 -20 -5 -20 -6
0 -8 -9 -5 -20 3 -11 1 -20 -3 -20 -5 0 -10 -15 -11 -32 -2 -18 -7 -34 -12
-36 -5 -2 -7 -12 -4 -22 3 -11 0 -20 -6 -20 -5 0 -8 -7 -5 -15 4 -8 1 -15 -6
-15 -6 0 -8 -4 -5 -10 8 -13 -16 -90 -28 -90 -5 0 -7 -7 -3 -15 3 -8 1 -15 -4
-15 -5 0 -7 -7 -4 -15 4 -8 1 -15 -6 -15 -6 0 -10 -6 -7 -12 5 -14 -48 -165
-65 -185 -6 -7 -7 -13 -3 -13 4 0 0 -11 -9 -25 -9 -14 -14 -25 -11 -25 3 0 -1
-13 -10 -30 -8 -16 -16 -33 -16 -37 0 -5 -11 -27 -25 -50 -14 -24 -22 -43 -19
-43 4 0 -39 -88 -149 -299 -10 -20 -21 -38 -25 -41 -6 -5 -24 -36 -62 -108
-12 -23 -26 -42 -31 -42 -4 0 -8 -5 -8 -10 0 -12 -95 -155 -122 -184 -10 -11
-18 -23 -18 -26 0 -4 -8 -16 -17 -28 -10 -11 -25 -30 -33 -42 -8 -12 -20 -28
-25 -34 -6 -6 -35 -42 -65 -81 -30 -38 -59 -75 -65 -81 -5 -6 -39 -45 -75 -85
-341 -387 -802 -740 -1275 -976 -471 -236 -942 -376 -1470 -438 -153 -18 -775
-27 -775 -11 0 4 -29 5 -65 1 -46 -5 -65 -3 -65 5 0 8 -14 9 -44 5 -28 -5 -46
-3 -51 4 -4 7 -19 9 -40 5 -19 -3 -35 -1 -39 5 -4 6 -20 8 -35 5 -16 -4 -32
-1 -35 5 -4 6 -18 8 -31 5 -12 -3 -26 -1 -29 5 -4 6 -20 8 -36 4 -20 -4 -30
-2 -30 7 0 8 -8 10 -25 6 -15 -4 -25 -2 -25 4 0 6 -10 8 -25 4 -16 -4 -25 -2
-25 6 0 6 -5 8 -10 5 -6 -4 -19 -4 -28 0 -9 4 -32 9 -51 11 -18 2 -39 8 -47
14 -7 7 -18 9 -23 6 -5 -4 -12 -2 -15 2 -3 5 -20 9 -38 10 -18 0 -34 5 -36 10
-2 6 -12 8 -22 5 -11 -3 -20 -1 -20 4 0 6 -14 10 -32 11 -17 0 -35 7 -39 14
-4 7 -11 10 -14 6 -5 -5 -104 24 -190 56 -5 2 -14 4 -20 6 -5 1 -16 6 -22 12
-7 6 -13 7 -13 4 0 -4 -10 -1 -22 6 -13 7 -26 11 -30 10 -5 -1 -8 3 -8 9 0 6
-6 9 -14 6 -8 -3 -22 1 -33 8 -10 8 -25 15 -35 15 -9 0 -18 4 -20 9 -1 6 -15
12 -30 15 -15 2 -40 11 -55 19 -16 8 -98 50 -183 92 -85 43 -173 88 -195 101
-22 13 -51 29 -65 36 -14 7 -38 21 -55 33 -16 11 -38 25 -47 30 -46 26 -290
195 -347 240 -241 189 -527 463 -696 668 -101 122 -315 416 -315 433 0 6 -6
17 -14 23 -8 7 -22 26 -31 44 -25 49 -40 73 -52 88 -22 29 -164 310 -218 434
-181 414 -284 792 -340 1250 -18 142 -27 732 -12 742 4 3 5 29 1 59 -4 39 -3
54 5 54 9 0 10 13 6 44 -5 28 -3 46 4 51 7 4 9 19 5 40 -3 19 -1 35 5 39 6 4
8 18 5 31 -3 13 -2 30 2 37 5 7 7 23 6 35 -2 11 1 24 7 27 6 4 8 13 4 21 -3 8
-2 23 2 33 5 9 7 27 6 40 -1 12 2 22 7 22 6 0 8 8 5 19 -3 10 0 22 6 25 5 4 8
13 4 21 -3 9 0 21 6 29 6 7 9 21 5 30 -3 9 -1 16 6 16 7 0 9 8 5 20 -3 11 -2
20 3 20 6 0 8 9 5 20 -3 11 -1 20 5 20 6 0 8 9 5 20 -3 12 0 20 7 20 7 0 9 8
5 20 -3 11 -2 20 3 20 5 0 9 14 10 32 0 17 6 34 12 38 6 4 10 11 9 16 -6 18
12 84 23 84 5 0 8 6 5 14 -3 8 -3 17 1 21 4 4 8 11 8 16 1 5 3 11 4 14 1 3 4
10 5 15 1 6 4 12 5 15 1 3 4 10 5 15 1 6 3 11 4 13 2 1 5 13 7 27 2 13 11 35
19 47 9 13 13 23 9 23 -4 0 -1 7 6 15 7 8 9 15 5 15 -4 0 0 11 9 25 9 14 14
25 10 25 -3 0 1 11 10 25 9 14 14 25 10 25 -3 0 4 16 16 35 12 19 19 35 15 35
-4 0 5 20 19 45 15 25 24 45 21 45 -7 0 125 263 135 270 4 3 15 21 24 40 21
46 48 91 63 108 7 7 13 20 13 28 0 8 4 14 9 14 5 0 12 8 15 18 13 32 31 62 38
62 5 0 8 5 8 11 0 11 55 95 77 117 7 8 18 23 24 34 6 11 34 50 62 87 29 37 63
82 77 101 14 18 30 38 35 44 6 6 51 58 100 116 116 135 300 319 444 442 111
95 312 251 360 279 14 8 34 22 45 31 11 10 32 24 48 30 15 7 28 16 28 20 0 5
4 8 9 8 5 0 35 18 67 39 79 52 160 96 339 184 189 94 195 96 345 155 510 202
1105 311 1615 296 88 -3 188 -5 223 -4z"/>
<path d="M4720 7436 c0 -5 -18 -6 -40 -2 -27 4 -40 3 -40 -5 0 -7 -11 -9 -30
-5 -19 3 -30 1 -30 -5 0 -7 -10 -9 -25 -5 -16 4 -25 2 -25 -5 0 -6 -9 -9 -20
-6 -11 3 -20 1 -20 -5 0 -6 -9 -8 -20 -5 -11 3 -20 1 -20 -5 0 -6 -7 -8 -15
-4 -8 3 -15 1 -15 -5 0 -6 -7 -9 -15 -5 -8 3 -15 1 -15 -5 0 -6 -7 -9 -15 -5
-8 3 -15 1 -15 -5 0 -6 -6 -9 -14 -6 -8 3 -16 2 -18 -2 -2 -4 -44 -29 -94 -55
-438 -225 -665 -705 -667 -1411 0 -323 67 -599 219 -895 83 -160 174 -288 299
-418 208 -217 447 -353 688 -392 107 -18 290 -8 392 20 44 13 86 23 93 23 6 0
12 4 12 9 0 4 5 8 12 8 6 0 49 18 95 40 45 22 86 40 89 39 4 0 10 3 13 8 9 14
98 73 110 73 6 0 11 5 11 10 0 6 8 14 18 17 9 4 25 17 35 30 10 13 22 23 27
23 10 0 157 152 213 221 95 117 212 319 262 452 10 26 21 47 26 47 5 0 6 7 3
15 -4 8 -1 15 5 15 6 0 8 7 5 15 -4 8 -1 15 5 15 6 0 8 7 5 15 -4 8 -2 15 4
15 6 0 8 9 5 20 -3 11 -1 20 5 20 6 0 8 9 5 20 -3 11 -1 20 5 20 6 0 8 9 5 20
-3 11 0 20 6 20 5 0 8 7 5 15 -3 8 -2 20 2 27 5 7 7 23 5 36 -1 12 3 22 9 22
8 0 9 10 5 30 -4 16 -3 35 1 42 21 33 20 327 -1 533 -3 28 -6 64 -8 80 -1 17
-6 36 -10 43 -5 7 -6 21 -2 31 3 11 1 22 -5 26 -6 4 -8 15 -5 25 3 10 1 21 -5
25 -6 4 -9 14 -6 22 4 9 1 22 -5 30 -7 7 -9 16 -6 20 4 3 2 12 -5 20 -6 7 -8
16 -5 20 4 3 2 12 -4 20 -6 7 -8 13 -4 13 4 0 2 7 -5 15 -7 9 -10 18 -7 22 4
3 2 12 -4 20 -6 7 -8 13 -4 13 4 0 2 7 -5 15 -7 8 -9 15 -5 15 4 0 2 7 -5 15
-7 8 -9 15 -4 15 5 0 3 4 -4 9 -7 4 -14 18 -15 29 -1 12 -4 22 -7 22 -7 0 -35
72 -32 83 1 4 -3 7 -10 7 -6 0 -9 3 -5 6 3 3 1 11 -4 18 -5 6 -24 36 -42 66
-18 30 -40 66 -48 79 -48 79 -195 224 -295 292 -133 89 -316 163 -457 184 -26
4 -47 11 -47 15 0 5 -18 6 -40 3 -22 -3 -40 -2 -40 3 0 5 -88 9 -195 9 -107 0
-195 -4 -195 -9z"/>
<path d="M3733 4159 c-6 -6 -24 -11 -42 -11 -17 -1 -31 -5 -31 -11 0 -5 -6 -7
-14 -4 -8 3 -17 3 -21 -1 -4 -4 -11 -8 -16 -8 -5 -1 -11 -3 -14 -4 -3 -1 -9
-4 -15 -5 -5 -1 -12 -4 -15 -5 -3 -1 -8 -3 -12 -4 -5 -1 -18 -7 -30 -14 -13
-7 -23 -10 -23 -7 0 3 -10 -1 -22 -9 -13 -8 -27 -15 -31 -15 -12 1 -121 -55
-129 -66 -4 -5 -8 -6 -8 -2 0 5 -7 1 -16 -7 -8 -9 -22 -16 -30 -16 -8 0 -14
-4 -14 -10 0 -5 -7 -10 -15 -10 -8 0 -15 -3 -15 -7 0 -5 -17 -19 -37 -33 -151
-103 -239 -215 -356 -450 -29 -58 -55 -106 -59 -108 -4 -2 -4 -10 -1 -18 3 -8
0 -14 -6 -14 -6 0 -8 -6 -5 -14 3 -8 1 -17 -5 -20 -6 -4 -8 -13 -5 -20 3 -8 1
-17 -5 -21 -6 -3 -8 -17 -5 -30 3 -12 1 -26 -5 -29 -14 -9 -14 -133 0 -142 6
-3 9 -15 6 -25 -3 -10 -1 -22 5 -25 5 -3 7 -12 4 -19 -3 -8 -2 -15 2 -17 4 -2
19 -28 33 -59 33 -68 112 -156 181 -201 l53 -33 1957 -5 c1077 -3 1958 -2
1958 1 0 3 17 15 38 27 56 31 146 130 180 198 84 167 68 371 -47 604 -43 86
-336 378 -466 463 -137 90 -327 173 -464 202 -35 7 -85 -10 -75 -27 9 -15
-247 -260 -341 -326 -96 -68 -252 -148 -350 -181 -96 -31 -213 -52 -252 -45
-26 5 -34 4 -29 -5 5 -8 -40 -11 -168 -11 -120 0 -176 3 -176 11 0 7 -14 8
-39 4 -24 -4 -41 -2 -46 4 -3 6 -17 8 -31 5 -15 -4 -24 -2 -24 6 0 7 -8 9 -19
5 -11 -3 -22 -1 -25 4 -4 6 -13 8 -21 4 -8 -3 -15 -1 -15 3 0 5 -12 10 -27 11
-15 0 -29 6 -31 12 -2 5 -10 7 -18 4 -8 -3 -14 0 -14 6 0 6 -7 8 -15 5 -8 -4
-15 -1 -15 6 0 6 -4 8 -10 5 -5 -3 -10 -1 -10 5 0 6 -4 9 -8 6 -12 -7 -132 51
-132 64 0 6 -4 9 -10 5 -5 -3 -18 3 -29 14 -11 11 -21 17 -24 15 -2 -2 -16 7
-30 20 -14 13 -28 22 -30 19 -3 -2 -22 12 -42 32 -21 19 -40 35 -42 35 -15 0
-146 127 -210 204 -74 87 -106 109 -130 85z"/>
</g>
</svg>
