<?xml version="1.0" standalone="no"?>
<!DOCTYPE svg PUBLIC "-//W3C//DTD SVG 20010904//EN"
 "http://www.w3.org/TR/2001/REC-SVG-20010904/DTD/svg10.dtd">
<svg version="1.0" xmlns="http://www.w3.org/2000/svg"
 width="1600.000000pt" height="1600.000000pt" viewBox="0 0 1600.000000 1600.000000"
 preserveAspectRatio="xMidYMid meet">
<metadata>
Created by potrace 1.16, written by Peter Selinger 2001-2019
</metadata>
<g transform="translate(0.000000,1600.000000) scale(0.100000,-0.100000)"
fill="#000000" stroke="none">
<path d="M7395 15989 c-180 -12 -621 -68 -675 -86 -8 -2 -42 -6 -75 -8 -33 -1
-132 -19 -220 -39 -88 -21 -175 -40 -192 -43 -18 -3 -33 -9 -33 -13 0 -4 -11
-5 -25 -3 -61 12 -778 -206 -1080 -329 -55 -22 -122 -48 -150 -58 -69 -24
-221 -92 -340 -151 -55 -27 -104 -49 -110 -49 -5 0 -50 -23 -99 -50 -49 -28
-93 -50 -98 -50 -6 0 -37 -16 -71 -37 -33 -20 -82 -47 -110 -60 -27 -14 -73
-40 -101 -59 -28 -19 -54 -34 -59 -34 -7 0 -108 -61 -249 -151 -37 -24 -65
-46 -62 -51 3 -4 -1 -5 -9 -2 -8 3 -36 -12 -63 -32 -26 -20 -67 -49 -90 -63
-66 -41 -191 -129 -226 -159 -18 -15 -45 -36 -60 -45 -51 -32 -296 -229 -431
-346 -34 -30 -86 -75 -115 -100 -70 -60 -563 -553 -623 -623 -25 -29 -70 -81
-100 -115 -117 -135 -314 -380 -346 -431 -9 -15 -30 -42 -45 -60 -30 -35 -118
-160 -159 -226 -14 -23 -43 -64 -63 -90 -20 -27 -35 -55 -32 -63 3 -8 2 -12
-2 -9 -5 3 -27 -25 -51 -62 -90 -141 -151 -242 -151 -249 0 -5 -15 -31 -34
-59 -19 -28 -45 -74 -59 -101 -13 -28 -40 -77 -60 -110 -21 -34 -37 -65 -37
-71 0 -6 -19 -43 -42 -84 -23 -40 -47 -86 -53 -103 -6 -16 -32 -73 -57 -125
-60 -124 -126 -272 -148 -335 -10 -27 -36 -95 -58 -150 -117 -289 -296 -866
-336 -1090 -8 -44 -31 -152 -51 -240 -21 -88 -39 -187 -40 -220 -2 -33 -6 -67
-8 -75 -8 -22 -45 -277 -62 -420 -27 -229 -35 -421 -35 -860 0 -540 12 -727
74 -1145 13 -88 29 -196 35 -240 6 -44 27 -150 47 -235 19 -85 39 -180 44
-210 19 -117 150 -568 232 -800 17 -47 43 -121 58 -165 15 -44 44 -118 64
-165 20 -46 36 -88 36 -93 0 -5 23 -59 51 -120 72 -160 159 -349 171 -371 5
-10 38 -73 73 -140 105 -202 183 -341 248 -442 26 -41 47 -78 47 -81 0 -4 23
-39 50 -79 28 -40 50 -76 50 -81 0 -4 19 -33 42 -63 23 -30 46 -64 52 -75 11
-21 61 -92 144 -204 26 -35 54 -74 62 -86 16 -24 75 -99 141 -182 24 -29 47
-49 52 -46 6 3 7 1 3 -6 -7 -11 108 -160 158 -205 12 -10 28 -28 36 -41 84
-127 833 -853 876 -849 7 1 12 -3 11 -8 -2 -10 143 -132 278 -233 36 -27 87
-66 113 -86 96 -74 535 -369 549 -369 3 0 29 -16 57 -35 56 -38 153 -94 261
-151 39 -20 96 -52 127 -71 37 -23 64 -33 75 -29 9 4 14 4 10 0 -10 -11 172
-107 189 -100 8 3 13 2 10 -2 -7 -11 317 -163 419 -197 22 -7 81 -31 130 -53
50 -22 104 -42 121 -46 17 -4 82 -27 144 -52 62 -24 118 -44 124 -44 6 0 81
-22 166 -49 192 -62 469 -136 575 -155 44 -8 152 -31 239 -50 88 -19 185 -38
215 -41 31 -4 148 -20 261 -36 364 -51 508 -61 950 -66 543 -7 823 9 1245 71
88 13 198 29 245 36 47 6 164 29 260 50 96 21 193 41 215 45 22 3 101 23 175
44 74 21 151 42 170 46 52 10 337 101 475 150 66 24 131 47 145 50 14 4 71 27
127 51 56 24 106 44 112 44 21 0 221 97 214 104 -4 4 0 4 8 1 14 -5 175 66
309 135 19 10 80 42 135 71 55 29 123 63 150 77 28 14 68 36 90 50 22 14 69
42 105 62 60 34 148 88 291 179 128 81 295 196 372 256 29 22 66 49 82 59 17
11 48 34 70 53 22 18 96 78 165 132 69 54 154 124 190 156 36 32 91 81 123
109 76 66 557 547 623 623 28 32 77 87 109 123 32 36 102 121 156 190 54 69
114 143 132 165 19 22 42 54 53 70 10 17 37 53 59 82 60 77 175 244 256 372
91 143 145 231 179 291 20 36 48 83 62 105 14 22 36 63 50 90 14 28 48 95 77
150 29 55 61 116 71 135 64 124 140 295 136 306 -3 8 -2 14 3 14 9 0 101 193
101 211 0 5 20 56 44 112 24 56 47 113 51 127 3 14 26 79 50 145 49 138 140
423 150 475 4 19 25 96 46 170 21 74 41 153 44 175 4 22 24 119 45 215 21 96
44 213 50 260 7 47 23 157 36 245 62 422 78 702 71 1245 -5 442 -15 586 -66
950 -16 113 -32 230 -36 261 -3 30 -22 127 -41 215 -19 87 -42 195 -50 239
-19 107 -94 384 -155 575 -27 85 -49 160 -49 166 0 6 -20 62 -44 124 -25 62
-48 127 -52 144 -4 17 -24 72 -46 121 -22 50 -46 108 -53 130 -34 102 -186
426 -197 419 -4 -3 -5 2 -2 10 7 17 -89 199 -100 189 -4 -4 -4 1 0 10 4 11 -6
38 -29 75 -19 31 -51 89 -71 127 -57 108 -113 205 -151 261 -19 28 -35 54 -35
57 0 14 -295 453 -369 549 -20 26 -58 77 -86 113 -101 135 -223 280 -233 278
-5 -1 -9 4 -8 11 4 43 -722 792 -849 876 -13 8 -31 24 -41 36 -45 50 -194 165
-205 158 -7 -4 -9 -3 -6 3 3 5 -17 28 -46 52 -83 66 -158 125 -182 141 -12 8
-51 36 -86 62 -112 83 -183 133 -204 144 -11 6 -45 29 -75 52 -30 23 -59 42
-63 42 -5 0 -41 23 -81 50 -40 28 -75 50 -79 50 -3 0 -40 21 -81 48 -101 64
-240 142 -442 247 -67 35 -130 68 -140 73 -22 12 -211 99 -371 171 -61 28
-115 51 -120 51 -5 0 -47 16 -93 36 -47 20 -121 49 -165 64 -44 15 -118 41
-165 58 -248 88 -715 222 -787 227 -23 2 -45 5 -50 8 -15 9 -326 76 -408 88
-44 6 -152 22 -240 35 -212 31 -388 51 -565 64 -167 11 -1007 11 -1185 -1z
m-2580 -5191 c98 -29 150 -68 205 -153 50 -77 68 -119 131 -295 28 -80 71
-194 95 -255 24 -60 44 -114 44 -119 0 -4 23 -59 50 -121 28 -62 50 -117 50
-121 0 -8 26 -64 163 -359 76 -163 155 -316 322 -620 48 -88 163 -273 265
-426 241 -363 501 -630 651 -670 92 -25 166 14 196 104 16 48 18 126 21 965 2
875 2 918 -18 1037 -30 185 -90 329 -196 469 -130 172 -172 237 -184 287 -16
67 0 128 50 196 31 40 52 56 97 75 l58 23 875 0 c941 0 937 0 1007 -52 43 -32
91 -132 103 -218 6 -43 10 -496 10 -1160 0 -1133 1 -1166 42 -1223 52 -75 131
-86 240 -35 298 141 813 814 1245 1628 69 131 270 538 278 565 4 14 24 59 45
100 20 41 43 92 49 112 19 58 95 153 161 202 106 78 112 79 755 83 690 5 756
-1 841 -79 89 -82 95 -175 24 -393 -43 -134 -66 -188 -153 -360 -28 -55 -59
-118 -70 -140 -38 -79 -217 -384 -343 -588 -73 -117 -261 -412 -304 -477 -20
-30 -77 -115 -126 -188 -49 -73 -100 -150 -114 -172 -14 -21 -56 -84 -95 -139
-38 -55 -80 -115 -92 -133 -12 -18 -41 -59 -63 -90 -22 -31 -55 -87 -72 -125
-78 -173 -30 -262 343 -630 195 -193 544 -568 658 -708 22 -27 73 -88 111
-135 247 -296 425 -556 500 -729 50 -117 63 -178 58 -271 -5 -84 -22 -122 -84
-183 -83 -83 -124 -87 -814 -87 -704 0 -703 0 -850 101 -81 55 -231 205 -460
459 -578 641 -1001 996 -1310 1100 -69 23 -201 29 -267 11 -21 -6 -54 -26 -72
-45 -59 -60 -61 -85 -61 -711 0 -618 -3 -646 -59 -734 -36 -55 -117 -109 -209
-138 -67 -21 -304 -43 -467 -43 -163 0 -440 23 -546 45 -494 104 -905 276
-1329 558 -163 108 -280 194 -371 271 -19 17 -60 51 -90 75 -73 60 -454 442
-510 512 -24 31 -69 87 -100 125 -74 92 -184 236 -214 282 -14 20 -52 75 -85
122 -34 47 -118 171 -187 275 -69 105 -138 208 -153 230 -15 22 -46 72 -69
110 -23 39 -64 106 -91 150 -28 44 -84 141 -126 215 -42 74 -94 164 -114 200
-122 211 -381 738 -463 945 -14 33 -38 94 -55 135 -106 259 -196 527 -251 746
-84 343 -79 446 28 553 30 30 52 41 107 54 104 25 97 25 724 22 493 -1 593 -4
635 -17z"/>
</g>
</svg>
