<?xml version="1.0" encoding="utf-8"?>
<!-- Generator: Adobe Illustrator 19.2.0, SVG Export Plug-In . SVG Version: 6.00 Build 0)  -->
<svg version="1.1" id="Layer_1" xmlns="http://www.w3.org/2000/svg" xmlns:xlink="http://www.w3.org/1999/xlink" x="0px" y="0px"
	 viewBox="0 0 557.2 181" style="enable-background:new 0 0 557.2 181;" xml:space="preserve">
<style type="text/css">
	.st0{fill:#17A01B;}
</style>
<g>
	<g>
		<polygon points="215.9,1.1 215.9,181 233.9,181 233.9,99.3 255.7,99.3 255.7,181 273.7,181 273.7,1.1 255.7,1.1 255.7,86.4 
			233.9,86.4 233.9,1.1 		"/>
		<polygon points="291.7,1.1 291.7,181 348.9,181 348.8,165.6 309.7,165.6 309.6,98.7 348.4,98.9 348.3,86 309.6,86 309.7,16.6 
			348.8,16.6 348.9,1.1 		"/>
		<polygon points="366.9,1.1 366.9,181 413.2,181 413.2,168.1 382.3,168.1 382.3,1.1 		"/>
		<rect x="426.2" y="1.1" width="18" height="179.9"/>
		<polygon points="525.7,181 500.4,81.3 525.7,1.1 507.7,1.1 492,50.7 476.3,1.1 458.4,1.1 482.1,80.4 458.4,181 476.3,181 
			490.4,115.6 507.7,181 		"/>
		<path class="st0" d="M179.6,178.4c0,0-24,0.7-50-3C43.4,163.3,0,103.9,0,73.1c0-107.3,179.9-61.3,179.9,0
			c0,54.2-123.3,54.3-135,0.3c-16.3-75.1,108.9-43.7,92-0.2c-6.7,17.2-38,13.3-51.5,0.2C70.5,59.1,87,46.3,87,46.3
			s-20.3,10-8.6,26.8c14.8,21.2,58.2,22.6,64.8,0c14-48.4-117-79.8-104.7,0c10.4,67.6,141.4,54,141.4,54V1.1H0V181h179.9
			L179.6,178.4z"/>
	</g>
	<path d="M545.9,0c6.3-0.1,11.2,4.8,11.3,11c0,6.3-4.7,11.2-11.1,11.3c-6.3,0.1-11.4-4.8-11.5-11C534.5,5,539.6,0.1,545.9,0L545.9,0
		z M545.8,2c-5,0.1-8.8,4.2-8.8,9.3c0,5.2,3.9,9.1,9.1,9.1c4.9,0,8.6-4.1,8.6-9.2C554.7,6,550.9,1.9,545.8,2L545.8,2z M544,17.2
		h-2.2l-0.1-11.6c1.2-0.2,2.5-0.4,4.1-0.4c1.9,0,2.9,0.3,3.7,0.9c0.7,0.5,1.2,1.4,1.2,2.5c0,1.4-1,2.3-2.2,2.7v0.2
		c1,0.4,1.5,1.3,1.9,2.8c0.4,1.7,0.7,2.5,0.9,2.9h-2.2c-0.3-0.4-0.6-1.4-1-3c-0.3-1.3-1.1-1.9-2.7-1.9H544V17.2z M543.9,10.7h1.5
		c1.5,0,3-0.5,3-1.8c0-1.1-0.8-1.9-2.8-1.9c-0.8,0-1.3,0.1-1.7,0.2V10.7z"/>
</g>
</svg>
