<?xml version="1.0" encoding="UTF-8" standalone="no"?>
<!-- Creator: CorelDRAW -->

<svg
   xmlns:dc="http://purl.org/dc/elements/1.1/"
   xmlns:cc="http://creativecommons.org/ns#"
   xmlns:rdf="http://www.w3.org/1999/02/22-rdf-syntax-ns#"
   xmlns:svg="http://www.w3.org/2000/svg"
   xmlns="http://www.w3.org/2000/svg"
   xmlns:sodipodi="http://sodipodi.sourceforge.net/DTD/sodipodi-0.dtd"
   xmlns:inkscape="http://www.inkscape.org/namespaces/inkscape"
   xml:space="preserve"
   width="159"
   height="100"
   style="clip-rule:evenodd;fill-rule:evenodd;image-rendering:optimizeQuality;shape-rendering:geometricPrecision;text-rendering:geometricPrecision"
   viewBox="0 0 42.068747 26.458332"
   version="1.1"
   id="svg74"
   sodipodi:docname="logo3.svg"
   inkscape:version="0.92.1 r15371"><metadata
     id="metadata78"><rdf:RDF><cc:Work
         rdf:about=""><dc:format>image/svg+xml</dc:format><dc:type
           rdf:resource="http://purl.org/dc/dcmitype/StillImage" /><dc:title></dc:title></cc:Work></rdf:RDF></metadata><sodipodi:namedview
     pagecolor="#ffffff"
     bordercolor="#666666"
     borderopacity="1"
     objecttolerance="10"
     gridtolerance="10"
     guidetolerance="10"
     inkscape:pageopacity="0"
     inkscape:pageshadow="2"
     inkscape:window-width="1920"
     inkscape:window-height="1017"
     id="namedview76"
     showgrid="false"
     inkscape:zoom="1.1893044"
     inkscape:cx="94.152447"
     inkscape:cy="257.39173"
     inkscape:window-x="-8"
     inkscape:window-y="-8"
     inkscape:window-maximized="1"
     inkscape:current-layer="svg74"
     units="px" /><defs
     id="defs58"><style
       type="text/css"
       id="style56"><![CDATA[
    .fil1 {fill:#1F1A17}
    .fil2 {fill:#FFF500}
    .fil0 {fill:#00553C}
   ]]></style></defs><g
     id="Слой_x0020_1"
     transform="matrix(0.33402804,0,0,0.2922756,-17.616184,-7.6043951)"><metadata
       id="CorelCorpID_0Corel-Layer" /><g
       id="_140902112"><polygon
         id="_140902568"
         class="fil0"
         points="175.063,102.808 55.0632,102.808 55.0632,76.3089 175.063,76.3089 "
         style="fill:#00553c" /><g
         id="g70"><g
           id="g64"><path
             id="_140902496"
             class="fil1"
             d="m 112.224,96.6047 c -0.5922,-1.7037 -0.1986,-2.6854 -1.5112,-0.9613 -1.3224,1.7368 -3.3051,4.6596 -6.311,4.3149 -4.5024,-0.5164 -5.8557,-4.9248 -6.3164,-8.4366 -4.1698,4.0573 -8.618,7.0532 -12.2059,8.3087 -2.3876,0.8354 -3.5367,-1.3261 -1.6038,-6.1381 0.4253,-1.0589 0.6278,-1.6305 2.1714,-2.3985 5.4825,-2.7279 8.1297,-7.0622 10.6193,-12.5984 0.807,-1.7174 5.851,-1.3868 7.1816,-1.2975 0.9177,0.0615 1.8669,0.3893 2.0642,0.7654 1.1993,2.1412 -2.0018,12.5602 2.3084,11.3449 1.3874,-0.3912 1.979,-1.2039 2.9212,-2.6907 5.3252,-9.7786 5.8612,-10.8236 10.0893,-15.22 2.019,-2.0995 3.1307,-1.5668 5.0502,-0.2124 1.9329,1.3639 3.8733,2.7741 2.8088,4.2915 -2.4545,3.4986 -5.8024,6.8547 -7.6821,10.8357 -1.566,3.3167 -0.0406,4.0494 3.3195,1.9154 3.1503,-2.0006 5.3595,-7.1832 7.6763,-9.8601 1.0649,-1.2304 4.5724,-0.3733 5.2724,0.2577 0.8821,0.4614 0.6965,5.2982 0.8965,6.3383 0.7308,4.0209 4.0952,4.3845 5.3989,1.1319 4.6054,-8.2711 17.0501,-14.4516 25.8501,-12.9815 1.2789,0.2662 0.9342,1.3297 0.7677,1.661 -1.1346,2.2575 -2.5084,4.5917 -3.7264,6.8079 -0.7169,1.0628 -2.487,0.2187 -5.4405,1.1164 -2.17,0.6596 -8.6452,5.0547 -7.4026,7.2417 1.7315,3.0475 8.3491,-1.1343 12.4521,-2.7566 2.0233,-0.8 2.4652,1.0037 2.296,1.599 -0.069,0.2431 -0.912,4.2205 -1.9111,4.9386 -5.4325,4.8036 -18.3995,10.0543 -21.8856,1.148 -0.2005,-0.5564 -0.3439,-0.636 -1.1312,-0.0474 -3.6654,2.7404 -7.503,4.3953 -10.1356,1.6944 -1.7967,-1.8433 -1.8165,-3.0625 -3.5243,-1.5473 -2.6708,2.3696 -5.3121,4.223 -7.8538,5.4886 -4.8329,2.4063 -9.2597,0.5012 -10.5024,-4.0536 z"
             inkscape:connector-curvature="0"
             style="fill:#1f1a17" /><path
             id="_140902424"
             class="fil1"
             d="m 57.6967,111.025 c -3.0103,-2.3533 6.3636,-16.1545 9.1061,-16.5661 1.1383,-0.1708 3.2635,-0.052 4.036,-0.9156 3.7009,-4.1378 18.6331,-20.7915 2.7264,-20.254 -5.9558,0.2014 -9.496,1.7523 -10.8658,1.9524 -6.2421,0.9117 1.7489,-10.8042 3.0953,-11.9859 2.1504,-1.8873 8.5729,-1.5036 12.1859,0.0254 5.79,2.4503 5.5772,5.3654 5.8609,1.8184 1.4311,-17.8862 -9.7328,-23.7438 -23.4789,-29.5107 -3.6141,-1.5163 -3.4444,-2.2683 0.6128,-5.7198 1.9807,-1.6851 13.5909,2.8903 15.8442,3.8937 6.3709,2.8365 15.052,8.4652 20.0494,14.9272 1.1441,1.4792 -2.254,2.4697 -0.7145,2.9286 1.6847,0.5022 1.6142,1.2342 1.7479,3.2651 1.5804,24.0014 -22.8272,48.3074 -35.8425,55.9349 -1.9242,1.1277 -3.1765,0.9755 -4.3632,0.2064 z"
             inkscape:connector-curvature="0"
             style="fill:#1f1a17" /></g><g
           id="g68"><path
             id="_140902328"
             class="fil2"
             d="m 58.7648,110.449 c -3.1226,-0.7836 5.9899,-14.7758 8.3967,-14.9095 1.1063,-0.0616 3.2437,-0.1277 4.0391,-0.9296 4.38,-4.4188 19.1899,-21.9684 3.7226,-22.3097 -1.0986,-0.0239 -6.3821,-0.1304 -12.0059,1.8387 -4.5447,1.5911 2.1886,-9.0353 3.5809,-10.1295 2.1627,-1.6997 8.9651,-1.1566 12.4074,0.8752 4.6637,2.7527 5.4487,5.7623 5.8862,0.5383 1.4713,-17.574 -7.9903,-23.8225 -22.3038,-30.1765 -4.0085,-1.7793 -4.9004,-0.9768 -1.0463,-4.406 1.6906,-1.5046 13.3506,3.1861 15.5109,4.1507 6.3744,2.847 14.41,8.469 18.9024,14.0454 0.7834,0.9718 -3.5519,2.3409 -0.9017,3.3654 1.9753,0.7631 1.8411,0.5456 1.9595,2.7366 1.1587,21.4595 -18.3165,43.5532 -34.1346,54.0457 -0.9045,0.5999 -2.8242,1.812 -4.0134,1.2648 z"
             inkscape:connector-curvature="0"
             style="fill:#fff500" /><path
             id="_140902184"
             class="fil2"
             d="m 113.252,96.5886 c -0.4119,-1.267 -0.5968,-4.8089 -2.4882,-2.5851 -1.6829,1.978 -3.35,5.3534 -6.3766,4.976 -4.3533,-0.5428 -5.1432,-5.9211 -5.5889,-9.5534 -3.7941,3.8765 -7.9745,7.3024 -12.948,9.3747 -3.0642,1.2764 -0.617,-4.5947 -0.5723,-4.7179 0.3377,-0.9279 0.5788,-1.3597 1.6573,-1.9025 5.4711,-2.7527 8.5102,-7.2047 10.9296,-12.8111 0.5112,-1.2776 4.9615,-1.0112 6.2943,-0.9585 0.3802,0.015 1.1816,0.1077 1.3321,0.3668 0.8249,1.837 -2.4221,13.0343 3.3294,11.714 1.6938,-0.389 2.6501,-1.6599 3.5923,-3.1467 5.4656,-10.1062 5.9222,-10.9137 10.1838,-15.2786 1.3878,-1.4213 2.0321,-1.0206 3.876,0.4362 1.372,1.0833 2.8487,1.8126 2.1602,2.7549 -2.5159,3.4459 -5.8796,6.9067 -7.6919,10.8493 -2.2072,4.8 1.0311,5.5382 4.5601,3.2844 3.2126,-2.0518 5.3407,-6.6076 8.0077,-10.0707 0.4856,-0.631 3.2906,-0.2708 3.9382,0.3269 0.3862,0.3557 0.3813,4.7623 0.5739,5.7768 0.9301,4.9049 5.363,5.2296 7.0318,1.7848 3.5813,-7.3923 15.974,-14.4955 25.0336,-12.8605 0.0829,0.041 0.0736,0.0932 0.0343,0.172 -1.1178,2.2749 -2.4205,4.4515 -3.6386,6.6681 -0.233,0.4234 -1.3076,-0.2198 -4.8961,0.7664 -2.061,0.5661 -11.2356,6.3007 -7.3204,9.4819 3.6474,2.9647 9.9269,-2.2855 13.1182,-3.1118 1.2302,-0.3186 0.7703,0.7814 0.6007,1.3774 -0.0699,0.2437 -0.8729,3.184 -1.4299,3.5514 -4.5115,3.9359 -17.3809,9.9247 -20.4064,1.0738 -0.1795,-1.106 -0.7637,-1.2037 -1.5935,-0.6759 -2.5525,1.6239 -6.7383,5.2445 -9.701,2.4119 -1.2815,-1.2254 -2.3709,-3.932 -4.2955,-2.191 -2.3829,2.1561 -4.9343,4.0785 -7.7186,5.6408 -3.6365,2.0401 -8.0143,1.7354 -9.5876,-2.9248 z"
             inkscape:connector-curvature="0"
             style="fill:#fff500" /></g></g></g></g></svg>